<?xml version="1.0" encoding="UTF-8"?>
<!DOCTYPE svg PUBLIC "-//W3C//DTD SVG 1.1//EN" "http://www.w3.org/Graphics/SVG/1.1/DTD/svg11.dtd">
<!-- Creator: CorelDRAW 2017 -->
<svg xmlns="http://www.w3.org/2000/svg" xml:space="preserve" width="297mm" height="210mm" version="1.1" style="shape-rendering:geometricPrecision; text-rendering:geometricPrecision; image-rendering:optimizeQuality; fill-rule:evenodd; clip-rule:evenodd"
viewBox="0 0 29700 21000"
 xmlns:xlink="http://www.w3.org/1999/xlink"
 data-name="Layer 1">
 <defs>
  <style type="text/css">
   <![CDATA[
    .fil7 {fill:#B980B6}
    .fil2 {fill:#C49CCE}
    .fil3 {fill:#D5C3F4}
    .fil8 {fill:url(#id0)}
    .fil9 {fill:url(#id1)}
    .fil1 {fill:url(#id2)}
    .fil0 {fill:url(#id3)}
    .fil6 {fill:url(#id4);fill-rule:nonzero}
    .fil4 {fill:url(#id5);fill-rule:nonzero}
    .fil5 {fill:url(#id6);fill-rule:nonzero}
   ]]>
  </style>
  <linearGradient id="id0" gradientUnits="userSpaceOnUse" x1="25009" y1="36263" x2="22761" y2="36263">
   <stop offset="0" style="stop-opacity:1; stop-color:#56CAD8"/>
   <stop offset="1" style="stop-opacity:1; stop-color:#297780"/>
  </linearGradient>
  <linearGradient id="id1" gradientUnits="userSpaceOnUse" x1="23721" y1="35402" x2="20384" y2="35402">
   <stop offset="0" style="stop-opacity:1; stop-color:#74D5DE"/>
   <stop offset="1" style="stop-opacity:1; stop-color:#45AEBA"/>
  </linearGradient>
  <linearGradient id="id2" gradientUnits="userSpaceOnUse" x1="26338" y1="25798" x2="29678" y2="33357">
   <stop offset="0" style="stop-opacity:1; stop-color:#B980CE"/>
   <stop offset="1" style="stop-opacity:1; stop-color:#804F80"/>
  </linearGradient>
  <linearGradient id="id3" gradientUnits="userSpaceOnUse" x1="27469" y1="24078" x2="27287" y2="34024">
   <stop offset="0" style="stop-opacity:1; stop-color:#586A9D"/>
   <stop offset="1" style="stop-opacity:1; stop-color:#AB6893"/>
  </linearGradient>
  <linearGradient id="id4" gradientUnits="userSpaceOnUse" x1="19967" y1="40499" x2="21476" y2="40878">
   <stop offset="0" style="stop-opacity:1; stop-color:#3BB1A6"/>
   <stop offset="1" style="stop-opacity:1; stop-color:#008190"/>
  </linearGradient>
  <linearGradient id="id5" gradientUnits="userSpaceOnUse" xlink:href="#id4" x1="21756" y1="40254" x2="22982" y2="40562">
  </linearGradient>
  <linearGradient id="id6" gradientUnits="userSpaceOnUse" xlink:href="#id4" x1="21071" y1="39756" x2="22381" y2="40355">
  </linearGradient>
 </defs>
 <g id="Layer_x0020_1">
  <metadata id="CorelCorpID_0Corel-Layer"/>
  <g id="_2120877926976">
   <path class="fil0" d="M20090 24982l-90 1 0 8898c1568,-121 3360,-274 3813,-265 2274,42 4406,-66 6272,-318l432 -293c705,-497 1517,-1097 2076,-1761l242 -281c319,-426 492,-848 535,-1280l0 -104c-48,-674 -1020,-1434 -1718,-1844 -152,-89 -291,-172 -447,-251 -1286,-652 -1892,-1423 -3240,-2093 -831,-413 -1932,-718 -3002,-922 -1265,245 -3067,514 -4874,514z"/>
   <path class="fil1" d="M29034 32355c2805,-408 4151,-1558 4038,-3447 -352,-462 -948,-898 -1419,-1175 -152,-89 -291,-172 -447,-251 -424,-215 -774,-442 -1101,-675 -140,155 -197,352 -173,589 -80,-222 -222,-310 -425,-262 -266,-167 -428,-142 -487,75 -527,-205 -756,-68 -687,412 -300,111 -429,236 -387,375 22,149 164,207 425,175 248,4 240,154 -25,450 -354,515 -595,669 -725,462 -236,-322 -415,-318 -537,13 -164,415 -393,465 -687,150 -282,-206 -473,-231 -575,-75 -322,-257 -564,-220 -725,112 -130,393 -338,664 -625,812 -281,-209 -485,-188 -612,62 -282,182 -436,524 -462,1024 -289,51 -443,268 -462,650 2038,1202 3519,2785 6096,525z"/>
   <path class="fil2" d="M31372 27570c-60,53 -74,134 -41,244 20,301 -109,442 -387,425 -310,171 -448,430 -412,775 -80,-222 -222,-310 -425,-262 -266,-167 -428,-142 -487,75 -527,-205 -756,-68 -687,412 -300,111 -429,236 -387,375 22,149 164,207 425,175 248,4 240,154 -25,450 -354,515 -595,669 -725,462 -236,-322 -415,-318 -537,12 -164,415 -393,465 -687,150 -282,-206 -473,-231 -575,-75 -322,-257 -564,-220 -725,112 -130,393 -338,664 -625,812 -281,-209 -485,-188 -612,62 -282,182 -436,524 -462,1024 -289,51 -443,268 -462,650 1425,840 2577,1866 4022,1636 184,-277 422,-514 724,-676 547,-294 1081,-627 1597,-970l638 -433c705,-497 1517,-1097 2076,-1761l242 -281c319,-426 492,-848 535,-1280l0 -104c-48,-674 -1020,-1434 -1718,-1844 -96,-57 -188,-111 -281,-163z"/>
   <path class="fil3" d="M20037 41000l-37 -1 0 -8059c276,-58 573,-96 895,-112 3952,-186 3540,2123 6972,1882 -392,377 -626,909 -750,1447 -93,402 -150,839 -207,1238 -82,579 -216,1161 -542,1651 -515,773 -1441,1035 -2275,1363 -191,75 -371,125 -559,189 -563,190 -1195,310 -1795,373 -119,13 -249,22 -386,28l-1316 0z"/>
   <path class="fil4" d="M22299 38544c419,-126 973,772 438,1234 -280,241 -252,701 -152,1068 -282,55 -568,97 -847,126 -20,2 -40,4 -60,6 11,-116 49,-235 137,-355 468,-635 102,-2080 483,-2078z"/>
   <path class="fil5" d="M22189 38533c-310,-309 -559,350 -585,1056 -12,315 -384,124 -542,471 -120,263 -170,633 -201,940l413 0c44,-383 327,-712 744,-859 853,-299 505,-1324 172,-1609z"/>
   <path class="fil6" d="M20522 39061c214,-152 464,404 224,1006 -82,204 245,590 440,933l-572 0c-22,-136 -56,-274 -101,-409 -283,-858 -420,-1437 9,-1531z"/>
   <path class="fil7" d="M26059 24712c125,149 147,268 66,357 -16,128 -89,198 -221,210 -58,173 -159,219 -302,137 -244,-73 -385,7 -423,240 -200,224 -439,289 -717,194 168,108 214,241 137,400 88,251 37,380 -153,388 70,473 -86,637 -469,489 -148,226 -275,309 -382,249 -119,-47 -140,-174 -64,-383 44,-206 -82,-227 -376,-64 -492,195 -664,365 -518,511 221,255 184,402 -111,441 -373,58 -458,237 -253,539 117,271 101,434 -46,488 152,314 75,507 -229,577 -349,33 -611,154 -787,363 119,271 64,436 -167,493 -203,198 -514,261 -932,189 -27,65 -64,118 -109,160l0 -6731c66,2 132,3 197,3l2943 248c871,81 1927,247 2919,504z"/>
   <path class="fil8" d="M24914 34517c64,0 95,117 95,214 0,292 -38,584 -113,871 -14,0 -28,-1 -42,-1 -194,0 -351,39 -351,86 0,48 154,85 345,86 -3,10 -6,19 -9,28 -187,2 -337,40 -337,86 0,42 119,76 279,84 -344,944 -1001,1689 -1444,2036l-576 0 0 -344c0,-599 1457,-3148 2153,-3148z"/>
   <path class="fil9" d="M20794 34724c356,0 394,382 635,382 93,0 119,-98 119,-191 0,-158 -256,-746 -277,-1123 25,5 50,7 75,7 0,0 0,0 1,0 168,0 305,-98 305,-218 0,-120 -137,-218 -305,-218 -8,0 -15,0 -23,1 81,-278 269,-568 684,-568 681,0 867,1207 970,1698 64,304 744,1393 744,2199 0,711 -218,1317 -275,1317l-685 0c0,-218 -425,-622 -526,-732 -699,-764 -1851,-1111 -1851,-2005 0,-197 49,-547 410,-547z"/>
  </g>
 </g>
</svg>
